<?xml version="1.0" encoding="UTF-8" standalone="no"?>
<!DOCTYPE svg PUBLIC "-//W3C//DTD SVG 1.1//EN" "http://www.w3.org/Graphics/SVG/1.1/DTD/svg11.dtd">
<svg width="100%" height="100%" viewBox="0 0 2284 2352" version="1.1" xmlns="http://www.w3.org/2000/svg" xmlns:xlink="http://www.w3.org/1999/xlink" xml:space="preserve" xmlns:serif="http://www.serif.com/" style="fill-rule:evenodd;clip-rule:evenodd;stroke-linejoin:round;stroke-miterlimit:2;">
    <g id="Layer-1" serif:id="Layer 1" transform="matrix(4.16667,0,0,4.16667,-1551.99,-625.71)">
        <g transform="matrix(-0.707107,0.707107,0.707107,0.707107,625.384,446.624)">
            <rect x="-80.474" y="-33.333" width="66.667" height="66.667" style="fill:rgb(252,177,70);"/>
        </g>
        <g transform="matrix(-0.707107,0.707107,0.707107,0.707107,625.384,258.062)">
            <rect x="-80.474" y="-33.333" width="66.667" height="66.667" style="fill:rgb(158,30,87);"/>
        </g>
        <g transform="matrix(-0.707107,0.707107,0.707107,0.707107,672.525,305.203)">
            <rect x="-80.474" y="-33.333" width="66.667" height="66.667" style="fill:rgb(239,55,72);"/>
        </g>
        <g transform="matrix(-0.707107,0.707107,0.707107,0.707107,672.525,399.484)">
            <rect x="-80.474" y="-33.333" width="66.667" height="66.667" style="fill:rgb(239,55,72);"/>
        </g>
        <g transform="matrix(-0.707107,0.707107,0.707107,0.707107,719.665,446.624)">
            <rect x="-80.474" y="-33.333" width="66.667" height="66.667" style="fill:rgb(239,55,72);"/>
        </g>
        <g transform="matrix(-0.707107,0.707107,0.707107,0.707107,578.244,305.203)">
            <rect x="-80.474" y="-33.333" width="66.667" height="66.667" style="fill:rgb(239,55,72);"/>
        </g>
        <g transform="matrix(-0.707107,0.707107,0.707107,0.707107,578.244,399.484)">
            <rect x="-80.474" y="-33.333" width="66.667" height="66.667" style="fill:rgb(239,55,72);"/>
        </g>
        <g transform="matrix(-0.707114,0.707099,0.707099,0.707114,531.103,352.343)">
            <rect x="-80.474" y="-33.333" width="66.667" height="66.666" style="fill:rgb(243,110,71);"/>
        </g>
        <g transform="matrix(-0.707107,0.707107,0.707107,0.707107,719.665,352.344)">
            <rect x="-80.474" y="-33.333" width="66.667" height="66.667" style="fill:rgb(243,110,71);"/>
        </g>
        <g transform="matrix(1,0,0,1,15.0605,394.477)">
            <path d="M430.818,290.517L414.339,290.517L414.339,219.179L430.818,219.179L430.818,290.517ZM411.848,189.516C411.848,186.635 412.898,184.145 414.998,182.045C417.096,179.946 419.612,178.896 422.542,178.896C425.519,178.896 428.059,179.946 430.159,182.045C432.258,184.096 433.308,186.611 433.308,189.589C433.308,192.568 432.258,195.108 430.159,197.206C428.108,199.306 425.593,200.356 422.615,200.356C419.636,200.356 417.096,199.306 414.998,197.206C412.898,195.108 411.848,192.544 411.848,189.516" style="fill:rgb(35,31,32);fill-rule:nonzero;"/>
        </g>
        <g transform="matrix(1,0,0,1,538.017,616.586)">
            <path d="M0,23.657L16.406,39.99C23.632,32.471 27.246,23.17 27.246,12.085C27.246,-0.073 23.218,-10.254 15.161,-18.457C7.104,-26.66 -2.905,-30.762 -14.868,-30.762C-26.979,-30.762 -36.939,-26.66 -44.751,-18.457C-52.613,-10.302 -56.543,0.025 -56.543,12.524C-56.543,24.732 -52.49,34.717 -44.385,42.48C-35.938,50.489 -26.294,54.492 -15.454,54.492C-8.082,54.492 -1.417,52.807 4.541,49.438L-22.046,23.657L0,23.657ZM46.948,70.459L25.488,70.459L16.626,61.377C7.202,67.432 -3.296,70.459 -14.868,70.459C-29.858,70.459 -43.165,65.381 -54.785,55.224C-67.432,44.044 -73.755,29.761 -73.755,12.378C-73.755,-4.662 -67.774,-18.871 -55.811,-30.249C-44.19,-41.283 -30.469,-46.802 -14.648,-46.802C-0.293,-46.802 12.572,-41.968 23.95,-32.3C37.621,-20.678 44.458,-5.517 44.458,13.183C44.458,27.832 39.063,40.845 28.271,52.221L46.948,70.459Z" style="fill:rgb(35,31,32);fill-rule:nonzero;"/>
        </g>
        <g transform="matrix(1,0,0,1,614.262,649.617)">
            <path d="M0,-0.512C0,6.618 1.904,12.258 5.713,16.407C9.619,20.607 14.77,22.706 21.167,22.706C27.612,22.706 32.764,20.631 36.621,16.48C40.478,12.331 42.407,6.788 42.407,-0.146C42.407,-7.078 40.478,-12.621 36.621,-16.772C32.714,-20.97 27.563,-23.071 21.167,-23.071C14.868,-23.071 9.766,-20.97 5.859,-16.772C1.952,-12.572 0,-7.152 0,-0.512M-16.846,-0.805C-16.846,-11.107 -13.159,-19.872 -5.786,-27.099C1.586,-34.325 10.571,-37.939 21.167,-37.939C31.812,-37.939 40.844,-34.301 48.267,-27.026C55.591,-19.749 59.253,-10.814 59.253,-0.219C59.253,10.474 55.565,19.435 48.193,26.661C40.771,33.839 31.665,37.427 20.874,37.427C10.181,37.427 1.22,33.765 -6.006,26.441C-13.232,19.216 -16.846,10.134 -16.846,-0.805" style="fill:rgb(35,31,32);fill-rule:nonzero;"/>
        </g>
        <g transform="matrix(1,0,0,1,690.947,683.016)">
            <path d="M0,-69.36L16.553,-69.36L16.553,-62.768C22.313,-68.481 28.809,-71.338 36.035,-71.338C44.336,-71.338 50.805,-68.725 55.444,-63.501C59.447,-59.057 61.45,-51.806 61.45,-41.748L61.45,1.978L44.897,1.978L44.897,-37.866C44.897,-44.897 43.92,-49.755 41.968,-52.441C40.063,-55.175 36.596,-56.543 31.567,-56.543C26.099,-56.543 22.217,-54.735 19.922,-51.123C17.676,-47.558 16.553,-41.332 16.553,-32.446L16.553,1.978L0,1.978L0,-69.36Z" style="fill:rgb(35,31,32);fill-rule:nonzero;"/>
        </g>
        <g transform="matrix(1,0,0,1,15.0605,394.477)">
            <path d="M774.617,290.517L758.138,290.517L758.138,219.179L774.617,219.179L774.617,290.517ZM755.647,189.516C755.647,186.635 756.697,184.145 758.797,182.045C760.895,179.946 763.411,178.896 766.341,178.896C769.318,178.896 771.858,179.946 773.958,182.045C776.056,184.096 777.107,186.611 777.107,189.589C777.107,192.568 776.056,195.108 773.958,197.206C771.907,199.306 769.391,200.356 766.414,200.356C763.435,200.356 760.895,199.306 758.797,197.206C756.697,195.108 755.647,192.544 755.647,189.516" style="fill:rgb(35,31,32);fill-rule:nonzero;"/>
        </g>
        <g transform="matrix(1,0,0,1,866.069,681.991)">
            <path d="M0,-65.259L0,-43.36C-3.761,-47.948 -7.13,-51.098 -10.107,-52.808C-13.037,-54.566 -16.479,-55.445 -20.435,-55.445C-26.636,-55.445 -31.787,-53.271 -35.889,-48.926C-39.99,-44.579 -42.041,-39.135 -42.041,-32.593C-42.041,-25.903 -40.063,-20.409 -36.108,-16.113C-32.105,-11.816 -27.002,-9.668 -20.801,-9.668C-16.846,-9.668 -13.355,-10.522 -10.327,-12.232C-7.397,-13.891 -3.955,-17.113 0,-21.9L0,-0.147C-6.69,3.32 -13.379,5.054 -20.068,5.054C-31.104,5.054 -40.332,1.49 -47.754,-5.64C-55.177,-12.818 -58.887,-21.728 -58.887,-32.373C-58.887,-43.017 -55.127,-52.002 -47.607,-59.326C-40.089,-66.651 -30.86,-70.313 -19.922,-70.313C-12.891,-70.313 -6.251,-68.628 0,-65.259" style="fill:rgb(35,31,32);fill-rule:nonzero;"/>
        </g>
    </g>
</svg>
