<?xml version="1.0" encoding="UTF-8" standalone="no"?>
<!DOCTYPE svg PUBLIC "-//W3C//DTD SVG 1.1//EN" "http://www.w3.org/Graphics/SVG/1.1/DTD/svg11.dtd">
<svg width="100%" height="100%" viewBox="0 0 402 294" version="1.1" xmlns="http://www.w3.org/2000/svg" xmlns:xlink="http://www.w3.org/1999/xlink" xml:space="preserve" xmlns:serif="http://www.serif.com/" style="fill-rule:evenodd;clip-rule:evenodd;stroke-linejoin:round;stroke-miterlimit:2;">
    <g>
        <path d="M50.199,204.899L50.199,248.838L67.759,248.838L67.759,261.242L35.552,261.242L35.552,204.899L50.199,204.899Z" style="fill-rule:nonzero;"/>
        <path d="M102.058,236.508C101.61,234.615 100.688,233.095 99.294,231.95C97.899,230.804 96.205,230.231 94.212,230.231C92.12,230.231 90.414,230.779 89.093,231.875C87.773,232.971 86.939,234.515 86.59,236.508L102.058,236.508ZM86.217,244.354C86.217,250.183 88.956,253.097 94.436,253.097C97.376,253.097 99.592,251.901 101.087,249.51L114.164,249.51C111.524,258.278 104.923,262.662 94.362,262.662C91.124,262.662 88.159,262.176 85.469,261.205C82.779,260.233 80.475,258.851 78.557,257.057C76.639,255.264 75.157,253.122 74.111,250.631C73.065,248.14 72.542,245.35 72.542,242.262C72.542,239.073 73.04,236.196 74.036,233.631C75.033,231.066 76.452,228.886 78.296,227.092C80.139,225.299 82.368,223.917 84.984,222.945C87.599,221.974 90.551,221.488 93.839,221.488C97.077,221.488 99.991,221.974 102.581,222.945C105.172,223.917 107.364,225.324 109.157,227.167C110.951,229.01 112.321,231.265 113.267,233.93C114.214,236.595 114.687,239.597 114.687,242.934L114.687,244.354L86.217,244.354Z" style="fill-rule:nonzero;"/>
        <path d="M131.202,222.908L140.318,242.561L149.584,222.908L164.679,222.908L144.727,261.242L135.685,261.242L115.957,222.908L131.202,222.908Z" style="fill-rule:nonzero;"/>
        <path d="M195.541,236.508C195.092,234.615 194.171,233.095 192.776,231.95C191.381,230.804 189.687,230.231 187.694,230.231C185.602,230.231 183.896,230.779 182.576,231.875C181.255,232.971 180.421,234.515 180.072,236.508L195.541,236.508ZM179.699,244.354C179.699,250.183 182.439,253.097 187.919,253.097C190.858,253.097 193.075,251.901 194.569,249.51L207.646,249.51C205.006,258.278 198.405,262.662 187.844,262.662C184.606,262.662 181.642,262.176 178.951,261.205C176.261,260.233 173.957,258.851 172.039,257.057C170.121,255.264 168.639,253.122 167.593,250.631C166.547,248.14 166.024,245.35 166.024,242.262C166.024,239.073 166.522,236.196 167.518,233.631C168.515,231.066 169.934,228.886 171.778,227.092C173.621,225.299 175.85,223.917 178.466,222.945C181.081,221.974 184.033,221.488 187.321,221.488C190.559,221.488 193.473,221.974 196.064,222.945C198.654,223.917 200.846,225.324 202.64,227.167C204.433,229.01 205.803,231.265 206.749,233.93C207.696,236.595 208.169,239.597 208.169,242.934L208.169,244.354L179.699,244.354Z" style="fill-rule:nonzero;"/>
        <rect x="215.866" y="199.22" width="13.525" height="62.022" style="fill-rule:nonzero;"/>
        <rect x="234.024" y="235.611" width="21.447" height="11.284" style="fill-rule:nonzero;"/>
        <path d="M276.02,204.899L276.02,235.536C276.02,237.18 276.083,238.862 276.207,240.58C276.332,242.299 276.705,243.856 277.328,245.251C277.951,246.646 278.935,247.779 280.28,248.651C281.625,249.523 283.518,249.959 285.959,249.959C288.4,249.959 290.281,249.523 291.601,248.651C292.921,247.779 293.905,246.646 294.552,245.251C295.2,243.856 295.586,242.299 295.711,240.58C295.835,238.862 295.897,237.18 295.897,235.536L295.897,204.899L310.469,204.899L310.469,237.554C310.469,246.322 308.464,252.723 304.454,256.759C300.443,260.794 294.278,262.811 285.959,262.811C277.639,262.811 271.462,260.794 267.427,256.759C263.392,252.723 261.374,246.322 261.374,237.554L261.374,204.899L276.02,204.899Z" style="fill-rule:nonzero;"/>
        <path d="M352.39,242.187C352.39,240.991 352.179,239.858 351.755,238.787C351.332,237.716 350.721,236.782 349.924,235.985C349.127,235.188 348.193,234.553 347.122,234.079C346.051,233.606 344.893,233.369 343.647,233.369C342.452,233.369 341.331,233.594 340.285,234.042C339.239,234.49 338.329,235.113 337.557,235.91C336.785,236.707 336.162,237.641 335.689,238.712C335.216,239.783 334.979,240.917 334.979,242.112C334.979,243.308 335.203,244.429 335.652,245.475C336.1,246.521 336.723,247.43 337.52,248.202C338.317,248.975 339.251,249.597 340.322,250.071C341.393,250.544 342.526,250.781 343.722,250.781C344.918,250.781 346.039,250.556 347.085,250.108C348.131,249.66 349.04,249.037 349.812,248.24C350.584,247.443 351.207,246.521 351.68,245.475C352.154,244.429 352.39,243.333 352.39,242.187ZM335.353,280.372L321.827,280.372L321.827,222.908L335.353,222.908L335.353,227.167C338.242,223.53 342.178,221.712 347.159,221.712C349.899,221.712 352.453,222.248 354.819,223.319C357.185,224.39 359.24,225.847 360.984,227.69C362.727,229.533 364.085,231.7 365.056,234.191C366.028,236.682 366.514,239.347 366.514,242.187C366.514,245.027 366.028,247.667 365.056,250.108C364.085,252.549 362.74,254.691 361.021,256.534C359.302,258.378 357.272,259.822 354.931,260.869C352.59,261.915 350.049,262.438 347.309,262.438C342.526,262.438 338.541,260.794 335.353,257.506L335.353,280.372Z" style="fill-rule:nonzero;"/>
        <path d="M201.042,13.999L134.639,52.337L156.774,65.116L201.042,39.557L245.311,65.116L267.445,52.337L201.042,13.999Z" style="fill:url(#_Linear1);fill-rule:nonzero;"/>
        <path d="M267.445,58.007L267.445,129.787L205.417,165.601L205.417,140.041L245.311,117.008L245.311,70.786L267.445,58.007Z" style="fill:url(#_Linear2);fill-rule:nonzero;"/>
        <path d="M198.011,165.601L134.639,129.012L134.639,57.674L156.774,70.454L156.774,116.233L198.011,140.041L198.011,165.601Z" style="fill:url(#_Linear3);fill-rule:nonzero;"/>
        <path d="M201.042,65.116L172.894,81.368L182.277,86.785L201.042,75.95L219.808,86.785L229.191,81.368L201.042,65.116Z" style="fill:rgb(255,38,57);"/>
        <path d="M201.042,83.312L180.203,95.344L187.149,99.354L201.042,91.333L214.935,99.354L221.882,95.344L201.042,83.312Z" style="fill:rgb(255,38,57);"/>
        <path d="M201.042,98.086L184.952,107.376L190.316,110.472L201.042,104.279L211.769,110.472L217.133,107.376L201.042,98.086Z" style="fill:rgb(255,38,57);"/>
    </g>
    <defs>
        <linearGradient id="_Linear1" x1="0" y1="0" x2="1" y2="0" gradientUnits="userSpaceOnUse" gradientTransform="matrix(132.806,-0,0,-132.806,134.639,84.285)"><stop offset="0" style="stop-color:rgb(255,122,16);stop-opacity:1"/><stop offset="1" style="stop-color:rgb(255,0,97);stop-opacity:1"/></linearGradient>
        <linearGradient id="_Linear2" x1="0" y1="0" x2="1" y2="0" gradientUnits="userSpaceOnUse" gradientTransform="matrix(132.806,-0,0,-132.806,134.639,85.06)"><stop offset="0" style="stop-color:rgb(255,122,16);stop-opacity:1"/><stop offset="1" style="stop-color:rgb(255,0,97);stop-opacity:1"/></linearGradient>
        <linearGradient id="_Linear3" x1="0" y1="0" x2="1" y2="0" gradientUnits="userSpaceOnUse" gradientTransform="matrix(132.806,-0,0,-132.806,134.639,84.285)"><stop offset="0" style="stop-color:rgb(255,122,16);stop-opacity:1"/><stop offset="1" style="stop-color:rgb(255,0,97);stop-opacity:1"/></linearGradient>
    </defs>
</svg>
