<?xml version="1.0" encoding="UTF-8" standalone="no"?>
<!DOCTYPE svg PUBLIC "-//W3C//DTD SVG 1.1//EN" "http://www.w3.org/Graphics/SVG/1.1/DTD/svg11.dtd">
<svg width="100%" height="100%" viewBox="0 0 1423 1088" version="1.1" xmlns="http://www.w3.org/2000/svg" xmlns:xlink="http://www.w3.org/1999/xlink" xml:space="preserve" xmlns:serif="http://www.serif.com/" style="fill-rule:evenodd;clip-rule:evenodd;stroke-linejoin:round;stroke-miterlimit:2;">
    <g id="Layer-1" serif:id="Layer 1">
        <g transform="matrix(1,0,0,1,274.683,961.161)">
            <path d="M0,-17.334L10.62,-17.334C36.743,-17.334 49.805,-27.384 49.805,-47.485C49.805,-66.935 36.335,-76.66 9.399,-76.66L0,-76.66L0,-17.334ZM0,9.033L0,85.571L-28.442,85.571L-28.442,-102.905L3.784,-102.905C19.571,-102.905 31.494,-101.807 39.551,-99.609C47.688,-97.412 54.85,-93.262 61.035,-87.158C71.857,-76.578 77.271,-63.232 77.271,-47.119C77.271,-29.865 71.491,-16.193 59.937,-6.104C48.38,3.988 32.795,9.033 13.184,9.033L0,9.033Z" style="fill:rgb(22,33,51);fill-rule:nonzero;"/>
        </g>
        <g transform="matrix(1,0,0,1,409.693,960.185)">
            <path d="M0,-15.381L9.033,-15.381C35.969,-15.381 49.438,-25.675 49.438,-46.265C49.438,-65.552 36.335,-75.195 10.132,-75.195L0,-75.195L0,-15.381ZM35.4,6.225L93.75,86.548L58.96,86.548L5.127,9.399L0,9.399L0,86.548L-28.442,86.548L-28.442,-101.929L4.883,-101.929C29.785,-101.929 47.77,-97.248 58.838,-87.891C71.045,-77.473 77.148,-63.721 77.148,-46.631C77.148,-33.283 73.322,-21.809 65.674,-12.207C58.023,-2.604 47.932,3.54 35.4,6.225" style="fill:rgb(22,33,51);fill-rule:nonzero;"/>
        </g>
        <g transform="matrix(1,0,0,1,635.767,1020)">
            <path d="M0,-135.01L-75.562,-135.01L-75.562,-89.722L-2.197,-89.722L-2.197,-62.989L-75.562,-62.989L-75.562,0L0,0L0,26.733L-104.004,26.733L-104.004,-161.743L0,-161.743L0,-135.01Z" style="fill:rgb(22,33,51);fill-rule:nonzero;"/>
        </g>
        <g transform="matrix(1,0,0,1,701.563,884.989)">
            <path d="M0,135.01L12.817,135.01C25.593,135.01 36.213,133.667 44.678,130.982C53.141,128.134 60.791,123.617 67.627,117.432C81.623,104.656 88.623,88.013 88.623,67.505C88.623,46.835 81.705,30.072 67.871,17.212C55.42,5.738 37.067,0 12.817,0L0,0L0,135.01ZM-28.442,161.743L-28.442,-26.733L11.108,-26.733C30.069,-26.733 45.044,-24.86 56.03,-21.118C67.829,-17.456 78.531,-11.23 88.134,-2.441C107.583,15.301 117.31,38.616 117.31,67.505C117.31,96.478 107.177,119.915 86.914,137.818C76.74,146.771 66.08,152.996 54.932,156.494C44.514,159.994 29.743,161.743 10.62,161.743L-28.442,161.743Z" style="fill:rgb(22,33,51);fill-rule:nonzero;"/>
        </g>
        <g transform="matrix(-1,0,0,1,1737.72,816.987)">
            <rect x="854.639" y="41.268" width="28.443" height="188.477" style="fill:rgb(22,33,51);"/>
        </g>
        <g transform="matrix(1,0,0,1,1067.65,1036.36)">
            <path d="M0,-167.969L0,-134.278C-16.439,-148.03 -33.447,-154.907 -51.025,-154.907C-70.395,-154.907 -86.713,-147.949 -99.977,-134.033C-113.324,-120.198 -119.996,-103.272 -119.996,-83.252C-119.996,-63.477 -113.324,-46.793 -99.977,-33.203C-86.631,-19.612 -70.273,-12.818 -50.904,-12.818C-40.895,-12.818 -32.391,-14.445 -25.391,-17.7C-21.484,-19.327 -17.437,-21.525 -13.244,-24.292C-9.055,-27.058 -4.639,-30.396 0,-34.302L0,0C-16.277,9.197 -33.367,13.794 -51.27,13.794C-78.207,13.794 -101.197,4.394 -120.24,-14.405C-139.203,-33.365 -148.682,-56.233 -148.682,-83.008C-148.682,-107.014 -140.748,-128.418 -124.879,-147.217C-105.348,-170.246 -80.078,-181.763 -49.072,-181.763C-32.146,-181.763 -15.789,-177.164 0,-167.969" style="fill:rgb(22,33,51);fill-rule:nonzero;"/>
        </g>
        <g transform="matrix(1,0,0,1,1155.54,1020)">
            <path d="M0,-135.01L0,26.733L-28.443,26.733L-28.443,-135.01L-71.777,-135.01L-71.777,-161.743L43.213,-161.743L43.213,-135.01L0,-135.01Z" style="fill:rgb(22,33,51);fill-rule:nonzero;"/>
        </g>
    </g>
    <g transform="matrix(0,1,1,0,720.761,77.911)">
        <path d="M242.089,-242.089C375.791,-242.089 484.178,-133.702 484.178,0C484.178,133.702 375.791,242.089 242.089,242.089C108.387,242.089 0,133.702 0,0C0,-133.702 108.387,-242.089 242.089,-242.089" style="fill:rgb(22,33,51);fill-rule:nonzero;"/>
    </g>
    <g transform="matrix(-0.86599,-0.500062,-0.500062,0.86599,525.528,307.892)">
        <path d="M-120.216,117.838L-17.863,117.838L8.643,18.972L-76.26,41.716L-120.216,117.838Z" style="fill:rgb(26,71,147);fill-rule:nonzero;"/>
    </g>
    <g transform="matrix(0,1,1,0,601.416,289.292)">
        <path d="M-119.346,-30.709L-31.444,-30.709L30.709,-92.861L-68.163,-119.346L-119.346,-30.709Z" style="fill:rgb(26,71,147);fill-rule:nonzero;"/>
    </g>
    <g transform="matrix(1,0,0,1,508.556,320)">
        <path d="M0,0L-26.484,98.87L-67.794,75.027L-67.794,-75.027L-26.484,-98.87L0,0Z" style="fill:rgb(56,80,161);fill-rule:nonzero;"/>
    </g>
    <g transform="matrix(1,0,0,1,570.708,120.128)">
        <path d="M0,49.818L-88.637,101.001L-100.986,54.92L5.117,-51.183L51.183,-38.834L0,49.818Z" style="fill:rgb(72,147,207);fill-rule:nonzero;"/>
    </g>
    <g transform="matrix(1,0,0,1,482.071,571.039)">
        <path d="M0,-152.169L88.637,-100.986L139.82,-12.349L93.753,0L-12.349,-106.103L0,-152.169Z" style="fill:rgb(72,147,207);fill-rule:nonzero;"/>
    </g>
    <g transform="matrix(0.707107,-0.707107,-0.707107,-0.707107,876.091,416.281)">
        <path d="M22.084,27.567L109.98,27.567L58.797,-61.072L-40.071,-34.588L22.084,27.567Z" style="fill:rgb(26,71,147);fill-rule:nonzero;"/>
    </g>
    <g transform="matrix(0.707107,-0.707107,-0.707107,-0.707107,755.347,580.034)">
        <path d="M9.364,58.276L97.261,58.276L159.417,-3.881L60.549,-30.363L9.364,58.276Z" style="fill:rgb(26,71,147);fill-rule:nonzero;"/>
    </g>
    <g transform="matrix(-0.707107,-0.707107,-0.707107,0.707107,955.575,179.31)">
        <path d="M-83.497,115.469L4.4,115.469L66.556,53.312L-32.312,26.83L-83.497,115.469Z" style="fill:rgb(26,71,147);fill-rule:nonzero;"/>
    </g>
    <g transform="matrix(1,0,0,1,1000.76,244.974)">
        <path d="M0,150.053L-41.31,173.897L-67.794,75.026L-41.31,-23.844L0,-0.001L0,150.053Z" style="fill:rgb(56,80,161);fill-rule:nonzero;"/>
    </g>
    <g transform="matrix(1,0,0,1,795.788,107.779)">
        <path d="M0,-67.794L23.844,-26.484L-75.027,0L-173.897,-26.484L-150.054,-67.794L0,-67.794Z" style="fill:rgb(56,80,161);fill-rule:nonzero;"/>
    </g>
    <g transform="matrix(1,0,0,1,870.815,519.857)">
        <path d="M0,-49.803L88.637,-100.986L100.986,-54.92L-5.117,51.183L-51.183,38.834L0,-49.803Z" style="fill:rgb(72,147,207);fill-rule:nonzero;"/>
    </g>
    <g transform="matrix(0.707107,0.707107,0.707107,-0.707107,686.176,492.138)">
        <path d="M-35.109,-3.877L52.787,-3.877L1.604,-92.516L-97.264,-66.032L-35.109,-3.877Z" style="fill:rgb(26,71,147);fill-rule:nonzero;"/>
    </g>
    <g transform="matrix(-0.707107,-0.707107,-0.707107,0.707107,836.224,103.37)">
        <path d="M-9.391,84.762L78.527,84.762L27.343,-3.877L-71.535,22.617L-9.391,84.762Z" style="fill:rgb(26,71,147);fill-rule:nonzero;"/>
    </g>
    <g transform="matrix(1,0,0,1,971.801,115.026)">
        <path d="M0,60.022L-12.349,106.103L-100.986,54.92L-152.169,-33.732L-106.103,-46.081L0,60.022Z" style="fill:rgb(72,147,207);fill-rule:nonzero;"/>
    </g>
    <g transform="matrix(-0.707107,0.707107,0.707107,0.707107,605.298,191.289)">
        <path d="M-140.695,22.595L-52.778,22.595L9.368,-39.551L-89.51,-66.044L-140.695,22.595Z" style="fill:rgb(26,71,147);fill-rule:nonzero;"/>
    </g>
    <g transform="matrix(1,0,0,1,645.735,532.206)">
        <path d="M0,67.794L-23.844,26.484L75.027,0L173.897,26.484L150.054,67.794L0,67.794Z" style="fill:rgb(56,80,161);fill-rule:nonzero;"/>
    </g>
    <g transform="matrix(0,1,1,0,720.762,217.02)">
        <path d="M100,-100C155.228,-100 200,-55.228 200,0C200,55.228 155.228,100 100,100C44.771,100 0,55.228 0,0C0,-55.228 44.771,-100 100,-100" style="fill:white;fill-rule:nonzero;"/>
    </g>
</svg>
