<?xml version="1.0" encoding="UTF-8" standalone="no"?>
<!DOCTYPE svg PUBLIC "-//W3C//DTD SVG 1.1//EN" "http://www.w3.org/Graphics/SVG/1.1/DTD/svg11.dtd">
<svg width="100%" height="100%" viewBox="0 0 500 522" version="1.1" xmlns="http://www.w3.org/2000/svg" xmlns:xlink="http://www.w3.org/1999/xlink" xml:space="preserve" xmlns:serif="http://www.serif.com/" style="fill-rule:evenodd;clip-rule:evenodd;stroke-linejoin:round;stroke-miterlimit:2;">
    <g transform="matrix(1,0,0,1,-677.89,-664.75)">
        <g id="final" transform="matrix(1,0,0,1,677.89,664.75)">
            <rect x="0" y="0" width="500" height="522" style="fill:none;"/>
            <g transform="matrix(1.31695,0,0,1.31695,-87.8891,-145.465)">
                <circle cx="261.241" cy="237.404" r="87.398" style="fill:rgb(24,24,24);"/>
            </g>
            <g transform="matrix(1.13207,0,-0.974267,0.985031,199.252,-23.7225)">
                <rect x="154.693" y="111.699" width="31.738" height="74.65" style="fill:rgb(255,163,0);"/>
            </g>
            <g transform="matrix(1.13207,0,-0.974267,0.985031,203.753,16.717)">
                <rect x="154.693" y="111.699" width="31.738" height="74.65" style="fill:rgb(255,163,0);"/>
            </g>
            <g transform="matrix(1.13207,0,-0.974267,0.985031,208.254,57.1565)">
                <rect x="154.693" y="111.699" width="31.738" height="74.65" style="fill:rgb(255,163,0);"/>
            </g>
            <g transform="matrix(1.12237,0,0,1.12237,-22.7414,-24.2378)">
                <g transform="matrix(83.3333,0,0,83.3333,109.154,373.594)">
                    <path d="M0.227,-0L0.375,-0L0.375,-0.583L0.579,-0.583L0.579,-0.705L0.023,-0.705L0.023,-0.583L0.227,-0.583L0.227,-0Z" style="fill:rgb(24,24,24);fill-rule:nonzero;"/>
                </g>
                <g transform="matrix(83.3333,0,0,83.3333,159.284,373.594)">
                    <path d="M0.059,-0L0.525,-0L0.525,-0.122L0.206,-0.122L0.206,-0.299L0.507,-0.299L0.507,-0.414L0.206,-0.414L0.206,-0.583L0.525,-0.583L0.525,-0.705L0.059,-0.705L0.059,-0Z" style="fill:rgb(24,24,24);fill-rule:nonzero;"/>
                </g>
                <g transform="matrix(83.3333,0,0,83.3333,207.054,373.594)">
                    <path d="M0.021,-0L0.18,-0L0.334,-0.247L0.339,-0.247L0.494,-0L0.662,-0L0.434,-0.352L0.434,-0.354L0.665,-0.705L0.5,-0.705L0.351,-0.451L0.346,-0.451L0.196,-0.705L0.022,-0.705L0.245,-0.356L0.245,-0.355L0.021,-0Z" style="fill:rgb(24,24,24);fill-rule:nonzero;"/>
                </g>
                <g transform="matrix(83.3333,0,0,83.3333,264.183,373.594)">
                    <path d="M0.059,-0L0.206,-0L0.206,-0.461L0.208,-0.461L0.528,-0L0.656,-0L0.656,-0.705L0.509,-0.705L0.509,-0.247L0.506,-0.247L0.188,-0.705L0.059,-0.705L0.059,-0Z" style="fill:rgb(24,24,24);fill-rule:nonzero;"/>
                </g>
                <g transform="matrix(83.3333,0,0,83.3333,323.713,373.594)">
                    <path d="M0.376,0.012C0.586,0.012 0.716,-0.128 0.716,-0.352L0.716,-0.353C0.716,-0.577 0.585,-0.717 0.376,-0.717C0.168,-0.717 0.037,-0.577 0.037,-0.353L0.037,-0.352C0.037,-0.128 0.167,0.012 0.376,0.012ZM0.376,-0.113C0.261,-0.113 0.187,-0.205 0.187,-0.352L0.187,-0.353C0.187,-0.5 0.261,-0.592 0.376,-0.592C0.492,-0.592 0.566,-0.5 0.566,-0.353L0.566,-0.352C0.566,-0.206 0.494,-0.113 0.376,-0.113Z" style="fill:rgb(24,24,24);fill-rule:nonzero;"/>
                </g>
                <g transform="matrix(62.5,0,0,62.5,118.39,436.094)">
                    <path d="M0.066,-0L0.132,-0L0.132,-0.266L0.306,-0.266C0.44,-0.266 0.532,-0.354 0.532,-0.485L0.532,-0.486C0.532,-0.617 0.44,-0.705 0.306,-0.705L0.066,-0.705L0.066,-0ZM0.29,-0.645C0.398,-0.645 0.464,-0.585 0.464,-0.486L0.464,-0.485C0.464,-0.385 0.398,-0.325 0.29,-0.325L0.132,-0.325L0.132,-0.645L0.29,-0.645Z" style="fill:rgb(24,24,24);fill-rule:nonzero;"/>
                </g>
                <g transform="matrix(62.5,0,0,62.5,153.485,436.094)">
                    <path d="M0.066,-0L0.491,-0L0.491,-0.061L0.132,-0.061L0.132,-0.331L0.473,-0.331L0.473,-0.391L0.132,-0.391L0.132,-0.644L0.491,-0.644L0.491,-0.705L0.066,-0.705L0.066,-0Z" style="fill:rgb(24,24,24);fill-rule:nonzero;"/>
                </g>
                <g transform="matrix(62.5,0,0,62.5,187.177,436.094)">
                    <path d="M0.264,-0L0.331,-0L0.331,-0.305L0.583,-0.705L0.507,-0.705L0.299,-0.37L0.296,-0.37L0.088,-0.705L0.011,-0.705L0.264,-0.305L0.264,-0Z" style="fill:rgb(24,24,24);fill-rule:nonzero;"/>
                </g>
                <g transform="matrix(62.5,0,0,62.5,224.347,436.094)">
                    <path d="M0.066,-0L0.128,-0L0.128,-0.579L0.132,-0.579L0.376,-0L0.434,-0L0.679,-0.579L0.682,-0.579L0.682,-0L0.745,-0L0.745,-0.705L0.668,-0.705L0.407,-0.084L0.404,-0.084L0.143,-0.705L0.066,-0.705L0.066,-0Z" style="fill:rgb(24,24,24);fill-rule:nonzero;"/>
                </g>
                <g transform="matrix(62.5,0,0,62.5,275.006,436.094)">
                    <path d="M0.066,-0L0.491,-0L0.491,-0.061L0.132,-0.061L0.132,-0.331L0.473,-0.331L0.473,-0.391L0.132,-0.391L0.132,-0.644L0.491,-0.644L0.491,-0.705L0.066,-0.705L0.066,-0Z" style="fill:rgb(24,24,24);fill-rule:nonzero;"/>
                </g>
                <g transform="matrix(62.5,0,0,62.5,308.698,436.094)">
                    <path d="M0.251,-0L0.318,-0L0.318,-0.644L0.551,-0.644L0.551,-0.705L0.019,-0.705L0.019,-0.644L0.251,-0.644L0.251,-0Z" style="fill:rgb(24,24,24);fill-rule:nonzero;"/>
                </g>
                <g transform="matrix(62.5,0,0,62.5,338.483,436.094)">
                    <path d="M0.011,-0L0.082,-0L0.161,-0.216L0.459,-0.216L0.538,-0L0.608,-0L0.343,-0.705L0.277,-0.705L0.011,-0ZM0.309,-0.623L0.311,-0.623L0.438,-0.273L0.182,-0.273L0.309,-0.623Z" style="fill:rgb(24,24,24);fill-rule:nonzero;"/>
                </g>
            </g>
        </g>
    </g>
</svg>
